<svg width="153" height="44" viewBox="0 0 153 44" fill="none" xmlns="http://www.w3.org/2000/svg">
<path d="M17.7275 5.573L0 16.9387L7.89429 22L17.7275 15.6956L27.5608 22L35.4552 16.9387L17.7275 5.573Z" fill="#42789E"/>
<path d="M7.89419 22L0 27.0612L17.7275 38.4271L35.4552 27.0612L27.5609 22L17.7275 28.3046L7.89419 22Z" fill="#8CB3CF"/>
<path d="M56.9401 21.618C58.0807 21.8307 59.0184 22.401 59.7531 23.329C60.4877 24.257 60.8551 25.3203 60.8551 26.519C60.8551 27.6017 60.5844 28.5587 60.0431 29.39C59.5211 30.202 58.7574 30.84 57.7521 31.304C56.7467 31.768 55.5577 32 54.1851 32H45.4561V11.758H53.8081C55.1807 11.758 56.3601 11.9803 57.3461 12.425C58.3514 12.8697 59.1054 13.4883 59.6081 14.281C60.1301 15.0737 60.3911 15.9727 60.3911 16.978C60.3911 18.1573 60.0721 19.1433 59.4341 19.936C58.8154 20.7287 57.9841 21.2893 56.9401 21.618ZM49.5161 20.11H53.2281C54.1947 20.11 54.9391 19.8973 55.4611 19.472C55.9831 19.0273 56.2441 18.399 56.2441 17.587C56.2441 16.775 55.9831 16.1467 55.4611 15.702C54.9391 15.2573 54.1947 15.035 53.2281 15.035H49.5161V20.11ZM53.6051 28.694C54.5911 28.694 55.3547 28.462 55.8961 27.998C56.4567 27.534 56.7371 26.8767 56.7371 26.026C56.7371 25.156 56.4471 24.4793 55.8671 23.996C55.2871 23.4933 54.5041 23.242 53.5181 23.242H49.5161V28.694H53.6051ZM79.0258 23.619C79.0258 24.199 78.9872 24.721 78.9098 25.185H67.1648C67.2615 26.345 67.6675 27.2537 68.3828 27.911C69.0982 28.5683 69.9778 28.897 71.0218 28.897C72.5298 28.897 73.6028 28.2493 74.2408 26.954H78.6198C78.1558 28.5007 77.2665 29.7767 75.9518 30.782C74.6372 31.768 73.0228 32.261 71.1088 32.261C69.5622 32.261 68.1702 31.9227 66.9328 31.246C65.7148 30.55 64.7578 29.5737 64.0618 28.317C63.3852 27.0603 63.0468 25.6103 63.0468 23.967C63.0468 22.3043 63.3852 20.8447 64.0618 19.588C64.7385 18.3313 65.6858 17.3647 66.9038 16.688C68.1218 16.0113 69.5235 15.673 71.1088 15.673C72.6362 15.673 73.9992 16.0017 75.1978 16.659C76.4158 17.3163 77.3535 18.254 78.0108 19.472C78.6875 20.6707 79.0258 22.053 79.0258 23.619ZM74.8208 22.459C74.8015 21.415 74.4245 20.5837 73.6898 19.965C72.9552 19.327 72.0562 19.008 70.9928 19.008C69.9875 19.008 69.1368 19.3173 68.4408 19.936C67.7642 20.5353 67.3485 21.3763 67.1938 22.459H74.8208ZM96.9243 23.619C96.9243 24.199 96.8856 24.721 96.8083 25.185H85.0633C85.1599 26.345 85.5659 27.2537 86.2813 27.911C86.9966 28.5683 87.8763 28.897 88.9203 28.897C90.4283 28.897 91.5013 28.2493 92.1393 26.954H96.5183C96.0543 28.5007 95.1649 29.7767 93.8503 30.782C92.5356 31.768 90.9213 32.261 89.0073 32.261C87.4606 32.261 86.0686 31.9227 84.8313 31.246C83.6133 30.55 82.6563 29.5737 81.9603 28.317C81.2836 27.0603 80.9453 25.6103 80.9453 23.967C80.9453 22.3043 81.2836 20.8447 81.9603 19.588C82.6369 18.3313 83.5843 17.3647 84.8023 16.688C86.0203 16.0113 87.4219 15.673 89.0073 15.673C90.5346 15.673 91.8976 16.0017 93.0963 16.659C94.3143 17.3163 95.2519 18.254 95.9093 19.472C96.5859 20.6707 96.9243 22.053 96.9243 23.619ZM92.7193 22.459C92.6999 21.415 92.3229 20.5837 91.5883 19.965C90.8536 19.327 89.9546 19.008 88.8913 19.008C87.8859 19.008 87.0353 19.3173 86.3393 19.936C85.6626 20.5353 85.2469 21.3763 85.0923 22.459H92.7193ZM103.6 28.665H110.763V32H98.9887V28.723L106.007 19.269H99.0177V15.934H110.676V19.211L103.6 28.665ZM117.618 28.665H124.781V32H113.007V28.723L120.025 19.269H113.036V15.934H124.694V19.211L117.618 28.665ZM131.985 10.54V32H127.925V10.54H131.985ZM151.366 15.934L141.419 39.598H137.098L140.578 31.594L134.14 15.934H138.693L142.84 27.157L147.045 15.934H151.366Z" fill="#063255"/>
</svg>
