<svg width="155" height="44" viewBox="0 0 155 44" fill="none" xmlns="http://www.w3.org/2000/svg">
<path d="M17.7275 5.573L0 16.9387L7.89429 22L17.7275 15.6956L27.5608 22L35.4552 16.9387L17.7275 5.573Z" fill="#42789E"/>
<path d="M7.89419 22L0 27.0612L17.7275 38.4271L35.4552 27.0612L27.5609 22L17.7275 28.3046L7.89419 22Z" fill="#8CB3CF"/>
<path d="M57.5781 21.56C58.7574 21.8113 59.7047 22.401 60.4201 23.329C61.1354 24.2377 61.4931 25.2817 61.4931 26.461C61.4931 28.1623 60.8937 29.5157 59.6951 30.521C58.5157 31.507 56.8627 32 54.7361 32H45.2531V11.642H54.4171C56.4857 11.642 58.1001 12.1157 59.2601 13.063C60.4394 14.0103 61.0291 15.296 61.0291 16.92C61.0291 18.1187 60.7101 19.1143 60.0721 19.907C59.4534 20.6997 58.6221 21.2507 57.5781 21.56ZM50.2121 19.878H53.4601C54.2721 19.878 54.8907 19.704 55.3161 19.356C55.7607 18.9887 55.9831 18.457 55.9831 17.761C55.9831 17.065 55.7607 16.5333 55.3161 16.166C54.8907 15.7987 54.2721 15.615 53.4601 15.615H50.2121V19.878ZM53.8661 27.998C54.6974 27.998 55.3354 27.8143 55.7801 27.447C56.2441 27.0603 56.4761 26.5093 56.4761 25.794C56.4761 25.0787 56.2344 24.518 55.7511 24.112C55.2871 23.706 54.6394 23.503 53.8081 23.503H50.2121V27.998H53.8661ZM79.6233 23.648C79.6233 24.112 79.5943 24.5953 79.5363 25.098H68.3133C68.3906 26.1033 68.7096 26.8767 69.2703 27.418C69.8503 27.94 70.556 28.201 71.3873 28.201C72.6246 28.201 73.485 27.679 73.9683 26.635H79.2463C78.9756 27.6983 78.4826 28.6553 77.7673 29.506C77.0713 30.3567 76.1916 31.0237 75.1283 31.507C74.065 31.9903 72.876 32.232 71.5613 32.232C69.976 32.232 68.5646 31.8937 67.3273 31.217C66.09 30.5403 65.1233 29.5737 64.4273 28.317C63.7313 27.0603 63.3833 25.591 63.3833 23.909C63.3833 22.227 63.7216 20.7577 64.3983 19.501C65.0943 18.2443 66.061 17.2777 67.2983 16.601C68.5356 15.9243 69.9566 15.586 71.5613 15.586C73.1273 15.586 74.5193 15.9147 75.7373 16.572C76.9553 17.2293 77.9026 18.167 78.5793 19.385C79.2753 20.603 79.6233 22.024 79.6233 23.648ZM74.5483 22.343C74.5483 21.4923 74.2583 20.8157 73.6783 20.313C73.0983 19.8103 72.3733 19.559 71.5033 19.559C70.672 19.559 69.9663 19.8007 69.3863 20.284C68.8256 20.7673 68.4776 21.4537 68.3423 22.343H74.5483ZM97.4934 23.648C97.4934 24.112 97.4644 24.5953 97.4064 25.098H86.1834C86.2607 26.1033 86.5797 26.8767 87.1404 27.418C87.7204 27.94 88.4261 28.201 89.2574 28.201C90.4947 28.201 91.3551 27.679 91.8384 26.635H97.1164C96.8457 27.6983 96.3527 28.6553 95.6374 29.506C94.9414 30.3567 94.0617 31.0237 92.9984 31.507C91.9351 31.9903 90.7461 32.232 89.4314 32.232C87.8461 32.232 86.4347 31.8937 85.1974 31.217C83.9601 30.5403 82.9934 29.5737 82.2974 28.317C81.6014 27.0603 81.2534 25.591 81.2534 23.909C81.2534 22.227 81.5917 20.7577 82.2684 19.501C82.9644 18.2443 83.9311 17.2777 85.1684 16.601C86.4057 15.9243 87.8267 15.586 89.4314 15.586C90.9974 15.586 92.3894 15.9147 93.6074 16.572C94.8254 17.2293 95.7727 18.167 96.4494 19.385C97.1454 20.603 97.4934 22.024 97.4934 23.648ZM92.4184 22.343C92.4184 21.4923 92.1284 20.8157 91.5484 20.313C90.9684 19.8103 90.2434 19.559 89.3734 19.559C88.5421 19.559 87.8364 19.8007 87.2564 20.284C86.6957 20.7673 86.3477 21.4537 86.2124 22.343H92.4184ZM104.75 27.911H111.768V32H99.2105V28.056L105.939 19.907H99.2685V15.818H111.623V19.762L104.75 27.911ZM119.136 27.911H126.154V32H113.597V28.056L120.325 19.907H113.655V15.818H126.009V19.762L119.136 27.911ZM133.842 10.54V32H128.883V10.54H133.842ZM153.966 15.818L143.816 39.685H138.48L142.192 31.449L135.609 15.818H141.148L144.889 25.939L148.601 15.818H153.966Z" fill="#063255"/>
</svg>
