<svg width="116" height="115" viewBox="0 0 116 115" fill="none" xmlns="http://www.w3.org/2000/svg">
<path d="M50.5061 103.944L48.4736 115L44.358 114.253C43.5451 114.104 42.9353 113.855 42.4272 113.506C41.9699 113.158 41.6143 112.759 41.4618 112.261C41.2586 111.763 41.2586 111.265 41.3602 110.717C41.4618 110.269 41.6143 109.871 41.8175 109.622C42.0207 109.373 42.3256 109.124 42.6305 108.974C42.9353 108.825 43.291 108.775 43.6467 108.725V108.626C43.291 108.526 42.9353 108.377 42.6305 108.078C42.3256 107.779 42.0716 107.43 41.9191 106.982C41.7667 106.534 41.7159 106.036 41.8175 105.488C41.9191 104.94 42.1732 104.442 42.478 104.044C42.8337 103.645 43.291 103.347 43.9007 103.197C44.5104 103.048 45.2726 103.048 46.1364 103.197L50.5061 103.944ZM47.6607 109.92L45.3742 109.522C44.9677 109.472 44.6121 109.472 44.3072 109.572C44.0023 109.671 43.6975 109.821 43.4434 110.07C43.1894 110.319 43.0878 110.568 42.9861 110.966C42.8845 111.415 42.9861 111.813 43.291 112.211C43.5959 112.61 44.0532 112.809 44.7137 112.958L47.051 113.357L47.6607 109.92ZM48.5245 105.04L46.0856 104.592C45.2726 104.442 44.6629 104.492 44.2564 104.741C43.8499 104.99 43.5959 105.339 43.4942 105.787C43.4434 106.136 43.4434 106.484 43.5959 106.783C43.6975 107.082 43.9515 107.381 44.2564 107.63C44.5613 107.879 44.9169 108.028 45.3742 108.078L47.9147 108.526L48.5245 105.04Z" fill="#F58A07"/>
<path d="M36.7359 100.159C37.4981 100.458 38.1078 100.906 38.5143 101.504C38.9208 102.052 39.1748 102.699 39.2256 103.446C39.2764 104.193 39.124 104.94 38.7683 105.737C38.4127 106.534 37.9554 107.181 37.3965 107.63C36.8375 108.128 36.177 108.426 35.5165 108.526C34.8051 108.626 34.0938 108.526 33.3824 108.227C32.9251 108.028 32.5186 107.779 32.163 107.48C31.8073 107.181 31.5533 106.783 31.35 106.335C31.1468 105.887 31.0451 105.389 31.096 104.791C31.096 104.193 31.2992 103.596 31.6041 102.898L31.8581 102.351L38.1586 104.94L37.6505 106.086L32.8743 104.094C32.7219 104.492 32.6203 104.89 32.6711 105.239C32.7219 105.638 32.8235 105.936 33.0268 106.235C33.23 106.534 33.5349 106.783 33.9413 106.932C34.3986 107.132 34.8051 107.181 35.2116 107.082C35.6181 107.032 35.9738 106.833 36.2786 106.584C36.5835 106.335 36.8375 105.986 36.99 105.638L37.3965 104.741C37.5997 104.243 37.7013 103.745 37.7013 103.297C37.6505 102.849 37.5489 102.45 37.2948 102.151C37.0408 101.853 36.6851 101.554 36.2278 101.355C35.923 101.255 35.6689 101.155 35.364 101.155C35.11 101.155 34.8051 101.155 34.6019 101.255C34.3986 101.355 34.1446 101.504 33.9413 101.703L32.5695 100.857C32.8743 100.508 33.23 100.209 33.6873 100.01C34.1446 99.8107 34.6019 99.7111 35.11 99.7609C35.6181 99.8107 36.177 99.9103 36.7359 100.159Z" fill="#F58A07"/>
<path d="M22.2549 99.3623L23.6776 100.01C23.6268 100.209 23.576 100.408 23.6268 100.607C23.6268 100.807 23.7284 101.056 23.8301 101.255C23.9825 101.454 24.1857 101.703 24.4398 101.852C24.8463 102.101 25.2019 102.251 25.6084 102.251C25.9641 102.251 26.269 102.101 26.4722 101.852C26.6246 101.603 26.6754 101.354 26.6246 101.105C26.5738 100.856 26.3706 100.558 26.0149 100.209L25.0495 99.2129C24.4906 98.6153 24.1857 98.0675 24.0841 97.5695C23.9825 97.0715 24.0841 96.5237 24.4398 96.0256C24.7446 95.6272 25.1003 95.3284 25.6084 95.179C26.0657 95.0296 26.5738 94.9798 27.1835 95.1292C27.7425 95.2288 28.3014 95.4778 28.9111 95.8762C29.7241 96.424 30.2322 97.0217 30.4862 97.6691C30.7403 98.3165 30.7403 99.0137 30.3846 99.7109L28.9111 99.0137C29.0635 98.6153 29.0635 98.2667 28.9619 97.9181C28.8095 97.5695 28.5554 97.2707 28.1489 96.9719C27.6916 96.6731 27.2852 96.5237 26.8787 96.5237C26.4722 96.5237 26.1673 96.6731 26.0149 96.9221C25.8625 97.1213 25.8117 97.3703 25.8625 97.6193C25.9133 97.8683 26.1165 98.1671 26.3706 98.4659L27.3868 99.5117C27.9457 100.109 28.2506 100.657 28.3522 101.205C28.4538 101.753 28.3014 102.251 27.9457 102.749C27.6408 103.147 27.2852 103.446 26.8279 103.595C26.3706 103.745 25.8625 103.745 25.3544 103.645C24.8463 103.546 24.2873 103.297 23.7792 102.948C23.0171 102.45 22.509 101.852 22.3057 101.255C22.0009 100.657 22.0009 100.01 22.2549 99.3623Z" fill="#F58A07"/>
<path d="M16.1574 99.5114L14.938 98.3659L20.5779 92.6387C20.7812 92.3897 20.9336 92.1905 20.9844 92.0411C21.0352 91.8419 21.0352 91.6925 20.9336 91.5431C20.8828 91.3937 20.7812 91.2443 20.6287 91.1447C20.5271 91.0451 20.4255 90.9953 20.3747 90.9455C20.3239 90.8957 20.2223 90.8459 20.1714 90.7961L20.9336 89.6008C21.0352 89.6506 21.1368 89.7004 21.2893 89.8C21.4417 89.8996 21.6449 90.0491 21.7974 90.1985C22.1022 90.4973 22.3563 90.8459 22.5087 91.1945C22.6612 91.5431 22.712 91.9415 22.6612 92.3399C22.6103 92.7383 22.3563 93.1367 22.0006 93.4854L16.1574 99.5114ZM15.0904 95.7264L16.005 94.7802L19.3585 97.9675L18.4439 98.9137L15.0904 95.7264Z" fill="#F58A07"/>
<path d="M15.3449 81.8318C15.5989 82.28 15.7514 82.778 15.8022 83.2263C15.853 83.7243 15.7514 84.1227 15.5481 84.5211C15.3449 84.9195 14.9892 85.2681 14.4811 85.5669C14.0746 85.8159 13.6681 85.9155 13.3125 85.9155C12.9568 85.9155 12.6011 85.8159 12.2963 85.6167C11.9914 85.4175 11.6865 85.2183 11.4325 84.9195C11.1784 84.6207 10.8736 84.3219 10.6703 84.0231C10.3655 83.6247 10.1114 83.276 9.90817 83.027C9.70493 82.778 9.5525 82.6286 9.40007 82.529C9.24764 82.4294 9.09521 82.4792 8.89196 82.5788H8.84115C8.43467 82.8278 8.18062 83.1266 8.079 83.4753C7.97738 83.8239 8.079 84.2721 8.33305 84.7203C8.63791 85.2183 8.94277 85.5171 9.29845 85.6665C9.65412 85.8159 10.0098 85.8657 10.3655 85.8159L10.8228 87.31C10.2638 87.4096 9.75574 87.3598 9.29845 87.2104C8.84115 87.061 8.43467 86.812 8.079 86.5132C7.72333 86.1645 7.41846 85.8159 7.16441 85.3677C7.01198 85.0689 6.85955 84.7701 6.70712 84.3717C6.6055 84.0231 6.55469 83.6247 6.55469 83.2263C6.55469 82.8278 6.70712 82.4294 6.91036 82.0808C7.1136 81.7322 7.52008 81.3836 8.079 81.035L13.0076 78.2461L13.8206 79.6405L12.8044 80.2382L12.8552 80.288C13.1092 80.288 13.3633 80.288 13.6681 80.3876C13.973 80.4872 14.2271 80.6366 14.5319 80.8358C14.8368 81.1346 15.0908 81.4334 15.3449 81.8318ZM13.973 82.1804C13.7189 81.782 13.4649 81.4832 13.16 81.284C12.8552 81.0848 12.4995 80.9852 12.1438 80.9852C11.7882 80.9852 11.4833 81.0848 11.1784 81.2342L10.213 81.782C10.3147 81.782 10.4163 81.8816 10.5179 81.9812C10.6195 82.0808 10.7719 82.2302 10.9244 82.4294C11.0768 82.5788 11.1784 82.778 11.3309 82.9274C11.4325 83.0768 11.5849 83.2263 11.6357 83.3259C11.839 83.5749 12.0422 83.8239 12.2454 83.9733C12.4487 84.1725 12.7027 84.2721 12.906 84.3219C13.16 84.3717 13.4141 84.3219 13.6681 84.1725C14.0238 83.9733 14.2271 83.6745 14.2271 83.3259C14.3287 82.9772 14.2271 82.5788 13.973 82.1804Z" fill="#F58A07"/>
<path d="M14.0746 71.523C14.2779 72.1704 14.3795 72.7182 14.3287 73.2661C14.3287 73.7641 14.2271 74.2123 14.0238 74.6107C13.8206 75.0091 13.6173 75.3079 13.3125 75.5569L12.2963 74.4115C12.3979 74.2621 12.5503 74.1127 12.6519 73.8637C12.7536 73.6645 12.8552 73.3657 12.906 73.0669C12.9568 72.768 12.906 72.3696 12.7536 71.9712C12.5503 71.3736 12.2455 70.9254 11.839 70.6266C11.4325 70.3278 10.8736 70.278 10.2639 70.4772L8.63792 70.9752L8.68873 71.0748C8.89197 71.1246 9.14602 71.1744 9.40007 71.274C9.65413 71.3736 9.90818 71.5728 10.213 71.8218C10.5179 72.0708 10.6703 72.4692 10.8228 72.9673C11.026 73.6147 11.0768 74.2123 10.9244 74.8099C10.772 75.4075 10.4671 75.9553 9.95899 76.4534C9.45089 76.9514 8.79035 77.3 7.92657 77.5988C7.0628 77.8478 6.24983 77.9474 5.53849 77.8478C4.82714 77.7482 4.21742 77.4992 3.70932 77.1008C3.20121 76.7024 2.84554 76.1546 2.6423 75.5071C2.48987 75.0091 2.43906 74.5609 2.48987 74.2123C2.54068 73.8637 2.69311 73.5649 2.84554 73.3159C2.99797 73.0669 3.1504 72.8677 3.30283 72.7182L3.25202 72.6186L1.93095 73.0171L1.42285 71.4732L9.80656 68.8835C10.5179 68.6843 11.1276 68.6345 11.6865 68.8337C12.2455 69.0329 12.7027 69.3317 13.1092 69.8298C13.5157 70.3278 13.8714 70.8258 14.0746 71.523ZM9.40007 72.9673C9.24764 72.519 9.0444 72.1704 8.68873 71.9214C8.33306 71.6724 7.97739 71.523 7.52009 71.523C7.0628 71.4732 6.5547 71.5728 5.99578 71.7222C5.43687 71.8716 4.97958 72.1206 4.6239 72.4194C4.26823 72.7182 4.01418 73.0669 3.86175 73.4155C3.70932 73.8139 3.70932 74.2123 3.86175 74.6605C4.01418 75.1087 4.26823 75.5071 4.6239 75.7063C4.97958 75.9553 5.38606 76.055 5.84335 76.1048C6.30064 76.1546 6.80875 76.0549 7.31685 75.9055C7.87576 75.7561 8.28225 75.5071 8.63792 75.2083C8.99359 74.9095 9.24764 74.5609 9.34926 74.2123C9.55251 73.8637 9.55251 73.4653 9.40007 72.9673Z" fill="#F58A07"/>
<path d="M8.99326 62.6087C9.09488 63.4554 8.94245 64.1526 8.63758 64.8C8.33272 65.4474 7.87543 65.9454 7.21489 66.294C6.60517 66.6925 5.84301 66.8917 4.92843 66.9913C4.06465 67.0909 3.25169 66.9913 2.59115 66.6925C1.87981 66.4434 1.3209 66.045 0.914412 65.4972C0.50793 64.9494 0.253878 64.302 0.152257 63.5052C0.101447 63.0071 0.152257 62.5589 0.253878 62.1107C0.355499 61.6625 0.60955 61.2143 0.914412 60.8657C1.21927 60.4673 1.62576 60.1685 2.18467 59.9194C2.69277 59.6704 3.35331 59.521 4.11546 59.4214L4.72519 59.3716L5.33491 66.045L4.06465 66.1446L3.60736 61.0649C3.15007 61.1147 2.79439 61.2143 2.48953 61.4135C2.18467 61.6127 1.93062 61.9115 1.77819 62.2103C1.62576 62.5091 1.52414 62.9075 1.57495 63.3558C1.62576 63.804 1.77819 64.2024 2.03224 64.5012C2.28629 64.8 2.59115 65.049 2.99764 65.1984C3.40412 65.3478 3.8106 65.3976 4.21708 65.3478L5.18248 65.2482C5.74139 65.1984 6.2495 65.049 6.60517 64.8C6.96084 64.551 7.2657 64.2522 7.46895 63.9036C7.62138 63.5052 7.723 63.1067 7.67219 62.6087C7.62138 62.3099 7.57057 62.0111 7.46895 61.7621C7.36732 61.5131 7.21489 61.3139 7.01165 61.1147C6.80841 60.9653 6.55436 60.8159 6.30031 60.7661L6.45274 59.1724C6.91003 59.272 7.36732 59.4214 7.723 59.7202C8.07867 60.019 8.38353 60.3677 8.63758 60.8657C8.89164 61.3637 8.94245 62.0111 8.99326 62.6087Z" fill="#F58A07"/>
<path d="M3.65834 54.4904L8.73938 55.088L8.53614 56.7315L0 55.7354L0.203241 54.1916L1.57512 54.341V54.2414C1.16864 53.9924 0.812965 53.6438 0.609724 53.1956C0.406483 52.7473 0.304862 52.1995 0.406483 51.6019C0.457293 51.0541 0.660534 50.5561 0.965396 50.1576C1.27026 49.7592 1.67674 49.4604 2.18484 49.311C2.69295 49.1118 3.30267 49.062 4.01402 49.1616L9.45072 49.809L9.24748 51.4525L3.96321 50.7553C3.35348 50.7055 2.84538 50.8051 2.4389 51.0541C2.03241 51.3529 1.82917 51.7513 1.77836 52.2991C1.72755 52.6975 1.77836 52.9963 1.93079 53.345C2.08322 53.6438 2.28647 53.8928 2.59133 54.1418C2.84538 54.2912 3.20105 54.4406 3.65834 54.4904Z" fill="#F58A07"/>
<path d="M11.3314 43.7833C11.0773 44.5304 10.6708 45.1778 10.1119 45.5762C9.55299 46.0244 8.89246 46.2734 8.18111 46.373C7.46977 46.4726 6.6568 46.373 5.84384 46.0742C5.03087 45.7754 4.31953 45.377 3.81142 44.879C3.30332 44.381 2.94765 43.7833 2.79522 43.0861C2.64278 42.3889 2.69359 41.6917 2.94765 40.9446C3.15089 40.347 3.45575 39.849 3.86223 39.4506C4.26871 39.0522 4.72601 38.7534 5.23411 38.604C5.74221 38.4546 6.30113 38.4546 6.86004 38.5542L6.35194 40.0482C5.94546 39.9984 5.53897 40.098 5.1833 40.2972C4.82763 40.4964 4.52277 40.845 4.37034 41.3431C4.2179 41.7913 4.2179 42.1897 4.31953 42.5881C4.42115 42.9865 4.6752 43.3351 5.03087 43.6837C5.38654 44.0323 5.84384 44.2814 6.45356 44.4806C7.06328 44.6798 7.57139 44.7794 8.07949 44.7296C8.58759 44.6798 8.99408 44.5802 9.34975 44.3312C9.70542 44.0821 9.95947 43.7335 10.1119 43.2853C10.2135 42.9865 10.2643 42.6877 10.2135 42.4387C10.1627 42.1399 10.1119 41.8909 9.95947 41.6917C9.80704 41.4925 9.6038 41.2434 9.34975 41.094L9.85785 39.6C10.366 39.849 10.7724 40.1478 11.0773 40.596C11.3822 40.9944 11.5854 41.4925 11.6362 42.0403C11.6362 42.5881 11.5854 43.1857 11.3314 43.7833Z" fill="#F58A07"/>
<path d="M16.666 39.1522C16.5136 39.3514 16.412 39.5506 16.2595 39.7C16.1071 39.8494 16.0055 39.949 15.9039 40.0486L14.9385 39.0028C15.1417 38.8035 15.3449 38.5545 15.4466 38.3553C15.5482 38.1561 15.599 37.9071 15.5482 37.7079C15.4974 37.4589 15.3449 37.2099 15.0909 36.8613L14.6844 36.4131L5.58936 34.7198L6.50394 33.2258L13.3633 34.7198L13.4141 34.6202L8.79041 29.4408L9.70499 27.9468L16.2595 35.7656C16.5644 36.1143 16.7676 36.5127 16.9201 36.8613C17.0725 37.2099 17.1233 37.6083 17.0725 37.9569C17.0217 38.3055 16.8693 38.7537 16.666 39.1522Z" fill="#F58A07"/>
<path d="M21.5946 26.9507L20.7816 26.0045L21.0357 20.5263C21.0357 19.9287 21.0865 19.4306 21.0357 19.0322C21.0357 18.6338 20.9849 18.2354 20.8833 17.9366C20.7816 17.6378 20.6292 17.339 20.426 17.09C20.1719 16.7912 19.8671 16.6417 19.5622 16.5421C19.2573 16.4425 18.9017 16.4425 18.5968 16.5421C18.2919 16.6417 17.9363 16.7912 17.6822 17.0402C17.3774 17.2892 17.1741 17.588 17.0217 17.9366C16.9201 18.2354 16.8693 18.584 16.9709 18.9326C17.0725 19.2812 17.2249 19.58 17.479 19.8789L16.2595 20.9745C15.8022 20.4765 15.4974 19.9287 15.3957 19.331C15.2941 18.7334 15.3449 18.1358 15.599 17.588C15.853 16.9904 16.2087 16.4923 16.7676 16.0441C17.3265 15.5959 17.8855 15.2971 18.4952 15.1477C19.1049 14.9983 19.6638 14.9983 20.2227 15.1975C20.7816 15.3469 21.2389 15.6457 21.6454 16.1437C21.9503 16.4425 22.1535 16.7912 22.306 17.2394C22.4584 17.6378 22.56 18.1358 22.56 18.7832C22.56 19.4306 22.56 20.1777 22.5092 21.1737L22.3568 24.2614L22.4076 24.3112L26.2692 20.9745L27.2346 22.0701L21.5946 26.9507Z" fill="#F58A07"/>
<path d="M33.0273 18.9327C32.2652 19.3311 31.4522 19.4805 30.69 19.3809C29.9279 19.2813 29.1657 18.9327 28.4544 18.2853C27.743 17.6876 27.0825 16.841 26.5236 15.7454C25.9139 14.6497 25.5582 13.7035 25.4566 12.7573C25.3549 11.8608 25.4566 11.064 25.7614 10.3668C26.1171 9.66957 26.6252 9.12175 27.4382 8.72334C28.2003 8.32492 28.9625 8.17552 29.7754 8.27512C30.5884 8.37472 31.2998 8.72334 32.0111 9.32096C32.7225 9.91858 33.383 10.7652 33.9419 11.811C34.5516 12.9067 34.9073 13.9027 35.0089 14.7991C35.1613 15.6956 35.0597 16.5422 34.7041 17.1896C34.3484 17.9367 33.7895 18.4845 33.0273 18.9327ZM32.316 17.6378C32.9765 17.2892 33.3322 16.6916 33.383 15.7952C33.4338 14.9485 33.0781 13.9027 32.4176 12.6577C31.9603 11.8608 31.503 11.2134 30.9949 10.7154C30.4868 10.2174 30.0295 9.91858 29.5214 9.81897C29.0133 9.71937 28.556 9.76917 28.0987 10.0182C27.4382 10.3668 27.0825 10.9644 27.0317 11.8608C26.9809 12.7075 27.3365 13.7533 27.9971 14.9984C28.4544 15.845 28.9117 16.4924 29.4198 16.9406C29.9279 17.4386 30.3852 17.6876 30.8933 17.837C31.3506 17.9366 31.8587 17.8868 32.316 17.6378Z" fill="#F58A07"/>
<path d="M38.9208 15.9446L38.5651 14.7493L41.2072 9.91858C41.5121 9.42056 41.7153 8.92255 41.8678 8.57393C42.0202 8.17552 42.1726 7.82691 42.2234 7.5281C42.2743 7.22929 42.2743 6.88068 42.1726 6.58187C42.071 6.23326 41.9186 5.93445 41.6645 5.73524C41.4105 5.53603 41.1056 5.38663 40.8008 5.33682C40.4451 5.28702 40.0894 5.28702 39.7337 5.38663C39.3273 5.48623 39.0224 5.68544 38.7683 5.88464C38.5143 6.13365 38.3619 6.43246 38.2602 6.73127C38.1586 7.03008 38.2094 7.4285 38.311 7.82691L36.7359 8.27512C36.5327 7.6277 36.5327 6.98028 36.7359 6.43246C36.8884 5.83484 37.244 5.33683 37.7013 4.93841C38.1586 4.54 38.7175 4.24119 39.4289 4.04198C40.1402 3.84277 40.7499 3.84277 41.3597 3.94238C41.9694 4.04198 42.4775 4.34079 42.9348 4.6894C43.3413 5.08782 43.6461 5.53603 43.8494 6.13365C43.951 6.53207 44.0018 6.93048 43.951 7.37869C43.9002 7.82691 43.7478 8.32493 43.4937 8.87274C43.2397 9.42056 42.884 10.1676 42.4267 11.0142L40.8516 13.8529V13.9525L45.831 12.6079L46.2375 14.0023L38.9208 15.9446Z" fill="#F58A07"/>
<path d="M53.3318 1.84434L53.8984 13.2677L52.1951 13.3686L51.7081 3.67569L51.6607 3.66067L49.0597 5.60934L48.9494 3.97577L51.676 1.96025L53.3318 1.84434Z" fill="#F58A07"/>
<path d="M70.9318 9.37065L70.5761 10.7651L65.6475 9.47025L66.0031 8.07581L70.9318 9.37065Z" fill="#F58A07"/>
<path d="M76.4189 18.3844L77.0795 17.3385L82.5162 16.0437C83.0751 15.8943 83.5832 15.7449 83.9897 15.6453C84.3962 15.5457 84.7519 15.3465 85.0059 15.1971C85.26 15.0477 85.514 14.7987 85.6664 14.4999C85.8697 14.201 85.9713 13.8524 85.9713 13.5536C85.9713 13.205 85.8697 12.9062 85.7173 12.6572C85.514 12.3584 85.26 12.1094 84.9551 11.9102C84.5994 11.711 84.2438 11.5616 83.8881 11.5616C83.5324 11.5616 83.2275 11.6114 82.9227 11.7608C82.6178 11.9102 82.3638 12.1592 82.1605 12.5078L80.7886 11.6612C81.1443 11.0635 81.6016 10.6651 82.1605 10.4161C82.7194 10.1671 83.2784 10.0675 83.9389 10.1173C84.5486 10.1671 85.1583 10.3663 85.7681 10.7647C86.3778 11.1631 86.8351 11.6114 87.1399 12.1094C87.4448 12.6572 87.5972 13.205 87.5972 13.7528C87.5972 14.3006 87.4448 14.8485 87.0891 15.3465C86.8859 15.6951 86.581 15.9939 86.2254 16.2429C85.8697 16.4919 85.4124 16.7409 84.8027 16.9401C84.1929 17.1393 83.4308 17.3385 82.4654 17.5876L79.2643 18.3844L79.2135 18.4342L83.5832 21.1235L82.7702 22.3685L76.4189 18.3844Z" fill="#F58A07"/>
<path d="M87.4953 26.8012C86.8856 26.2036 86.5299 25.5064 86.3775 24.7594C86.2759 24.0123 86.3775 23.2155 86.784 22.3689C87.1904 21.5223 87.8002 20.6756 88.7148 19.829C89.5785 18.9824 90.4423 18.335 91.3061 17.9863C92.1699 17.5879 92.9828 17.4883 93.745 17.5879C94.5071 17.6875 95.2185 18.0859 95.8282 18.6836C96.4379 19.2812 96.7936 19.9784 96.946 20.7254C97.0476 21.4725 96.946 22.2693 96.5395 23.1159C96.1331 23.9625 95.5233 24.8092 94.6596 25.6558C93.7958 26.5024 92.8812 27.1499 92.0682 27.4985C91.2045 27.8969 90.3915 27.9965 89.6293 27.8969C88.8164 27.7973 88.105 27.3989 87.4953 26.8012ZM88.5623 25.7554C89.1212 26.3032 89.7818 26.4526 90.6455 26.2534C91.5093 26.0542 92.4239 25.4068 93.4401 24.4606C94.1006 23.8131 94.6087 23.1657 94.9644 22.5681C95.2693 21.9705 95.4217 21.4227 95.4217 20.9246C95.4217 20.4266 95.2185 20.0282 94.8628 19.6298C94.3039 19.082 93.6434 18.9326 92.7796 19.1318C91.9158 19.331 91.0012 19.9784 89.985 20.9246C89.3245 21.5721 88.8164 22.2195 88.4607 22.8171C88.1558 23.4147 88.0034 23.9625 88.0034 24.4606C88.0034 25.0084 88.2066 25.4068 88.5623 25.7554Z" fill="#F58A07"/>
<path d="M92.0684 31.5319L93.1354 30.8845L98.5721 32.0299C99.1818 32.1295 99.6899 32.2291 100.096 32.2789C100.503 32.3287 100.909 32.3287 101.214 32.2789C101.519 32.2291 101.824 32.1295 102.129 31.9303C102.434 31.7311 102.688 31.4821 102.84 31.1833C102.993 30.8845 103.043 30.5856 102.993 30.237C102.942 29.8884 102.84 29.5896 102.637 29.241C102.434 28.8924 102.18 28.6434 101.875 28.494C101.57 28.3446 101.265 28.245 100.909 28.2948C100.554 28.2948 100.198 28.4442 99.8931 28.6434L99.0294 27.2489C99.6391 26.9003 100.198 26.7011 100.859 26.7011C101.519 26.7011 102.027 26.8505 102.586 27.1493C103.145 27.4481 103.602 27.8964 103.958 28.494C104.364 29.0916 104.568 29.6892 104.618 30.2868C104.669 30.8845 104.568 31.4323 104.314 31.9801C104.06 32.5279 103.653 32.9263 103.145 33.2251C102.789 33.4243 102.383 33.5737 101.976 33.6733C101.57 33.7729 101.011 33.7729 100.401 33.6733C99.7915 33.6235 98.9785 33.4741 98.0132 33.2749L94.7613 32.6275L94.7105 32.6773L97.4542 36.9603L96.184 37.7073L92.0684 31.5319Z" fill="#F58A07"/>
<path d="M97 42.831L98.067 42.1836L103.504 43.329C104.113 43.4286 104.622 43.5282 105.028 43.578C105.434 43.6278 105.841 43.6278 106.146 43.578C106.451 43.5282 106.756 43.4286 107.06 43.2294C107.365 43.0302 107.619 42.7812 107.772 42.4824C107.924 42.1836 107.975 41.8848 107.924 41.5362C107.873 41.1876 107.772 40.8887 107.569 40.5401C107.365 40.1915 107.111 39.9425 106.806 39.7931C106.502 39.6437 106.197 39.5441 105.841 39.5939C105.485 39.5939 105.13 39.7433 104.825 39.9425L103.961 38.5481C104.571 38.1995 105.13 38.0002 105.79 38.0002C106.451 38.0002 106.959 38.1496 107.518 38.4485C108.077 38.7473 108.534 39.1955 108.89 39.7931C109.296 40.3907 109.499 40.9883 109.55 41.586C109.601 42.1836 109.499 42.7314 109.245 43.2792C108.991 43.827 108.585 44.2255 108.077 44.5243C107.721 44.7235 107.314 44.8729 106.908 44.9725C106.502 45.0721 105.943 45.0721 105.333 44.9725C104.723 44.9227 103.91 44.7733 102.945 44.5741L99.6929 43.9266L99.6421 43.9764L102.386 48.2594L101.116 49.0064L97 42.831Z" fill="#F58A07"/>
<path d="M116 53.2458L97.2511 55.1382L97.0986 53.694L115.848 51.8015L116 53.2458Z" fill="#F58A07"/>
<path d="M112.037 66.2939L100.655 64.9492L100.859 63.3058L112.24 64.6504L112.037 66.2939Z" fill="#F58A07"/>
<path d="M99.1309 71.1245C99.3342 70.3774 99.7407 69.73 100.249 69.2818C100.757 68.8336 101.417 68.5348 102.129 68.3854C102.84 68.236 103.653 68.2858 104.517 68.5348C105.381 68.7838 106.092 69.1324 106.651 69.6304C107.21 70.1284 107.565 70.7261 107.769 71.3735C107.972 72.0209 107.921 72.7679 107.718 73.5149C107.515 74.262 107.108 74.9094 106.6 75.3576C106.092 75.8058 105.431 76.1046 104.72 76.254C104.009 76.4034 103.196 76.3536 102.332 76.1046C101.468 75.8556 100.757 75.507 100.249 75.009C99.6899 74.511 99.3342 73.9134 99.1309 73.2659C98.9277 72.6185 98.9277 71.8715 99.1309 71.1245ZM100.503 71.5229C100.35 72.0209 100.35 72.4691 100.554 72.8675C100.757 73.2659 101.011 73.6145 101.417 73.8636C101.824 74.1624 102.281 74.3616 102.789 74.511C103.297 74.6604 103.805 74.7102 104.314 74.7102C104.822 74.6604 105.228 74.5608 105.584 74.3118C105.94 74.0628 106.194 73.7142 106.346 73.2161C106.498 72.7181 106.498 72.2699 106.295 71.8715C106.143 71.4731 105.838 71.1245 105.431 70.8257C105.025 70.5268 104.568 70.3276 104.06 70.1782C103.551 70.0288 103.043 69.979 102.535 69.979C102.027 70.0288 101.621 70.1284 101.265 70.4272C100.909 70.6762 100.655 71.0249 100.503 71.5229Z" fill="#F58A07"/>
<path d="M100.96 80.8858L96.4888 78.4953L97.3018 77.051L104.872 81.0352L104.11 82.4296L102.891 81.7822L102.84 81.8818C103.145 82.2802 103.297 82.6786 103.348 83.1766C103.399 83.6747 103.247 84.1727 102.942 84.7703C102.688 85.2683 102.332 85.6667 101.875 85.9157C101.468 86.1647 100.96 86.3142 100.452 86.3142C99.8931 86.3142 99.3342 86.1149 98.7244 85.8161L93.8975 83.2762L94.7104 81.832L99.3342 84.2723C99.8931 84.5711 100.401 84.6707 100.858 84.5213C101.316 84.4217 101.671 84.1229 101.976 83.6249C102.18 83.2762 102.23 82.9774 102.23 82.6288C102.23 82.2802 102.129 81.9814 101.926 81.6826C101.671 81.3838 101.367 81.1348 100.96 80.8858Z" fill="#F58A07"/>
<path d="M90.0865 87.758C90.5438 87.26 91.1027 86.9114 91.7125 86.7122C92.3222 86.5628 92.9827 86.5628 93.6941 86.762C94.4054 86.9612 95.1168 87.3596 95.7773 87.9573C96.4378 88.5549 96.9967 89.2023 97.2508 89.8497C97.5557 90.4971 97.6573 91.1446 97.5557 91.792C97.454 92.4394 97.2 92.9872 96.7427 93.4852C96.387 93.8836 96.0313 94.1326 95.6757 94.2821C95.32 94.4315 95.0151 94.4813 94.7103 94.4315C94.4054 94.4315 94.1514 94.3817 93.9481 94.3319L93.8973 94.3817L97.0984 97.1207L95.9805 98.3658L87.3428 90.9951L88.4098 89.7999L89.426 90.6465L89.5276 90.5469C89.4768 90.3477 89.3752 90.0987 89.3244 89.7999C89.2736 89.5011 89.2736 89.2023 89.3752 88.8537C89.4768 88.5051 89.7309 88.1565 90.0865 87.758ZM90.8995 88.9533C90.5946 89.3019 90.3914 89.7003 90.3914 90.0987C90.3914 90.4971 90.493 90.9453 90.6963 91.3438C90.9503 91.7422 91.2552 92.1904 91.7125 92.539C92.1698 92.9374 92.6271 93.1864 93.0843 93.3358C93.5416 93.4852 93.9481 93.535 94.3546 93.4354C94.7611 93.3358 95.1168 93.1366 95.4216 92.788C95.7265 92.4394 95.9297 92.041 95.9297 91.5928C95.9297 91.1944 95.8281 90.7461 95.6249 90.3477C95.3708 89.9493 95.066 89.5509 94.6595 89.2023C94.2022 88.8537 93.7957 88.5549 93.3384 88.4055C92.8811 88.2561 92.4238 88.2063 92.0173 88.2561C91.6108 88.3557 91.2552 88.6047 90.8995 88.9533Z" fill="#F58A07"/>
<path d="M82.3131 94.9301C82.9737 94.4819 83.6342 94.183 84.3455 94.1332C85.0569 94.0834 85.7174 94.183 86.378 94.5317C87.0385 94.8803 87.6482 95.3783 88.1563 96.0755C88.6644 96.7727 89.0201 97.4699 89.1725 98.217C89.325 98.9142 89.2233 99.6114 88.9693 100.259C88.7152 100.906 88.2579 101.454 87.5974 101.952C86.9369 102.4 86.2763 102.699 85.565 102.749C84.8536 102.799 84.1931 102.649 83.5326 102.351C82.872 102.002 82.2623 101.504 81.7542 100.807C81.2461 100.109 80.8904 99.4122 80.7888 98.6652C80.6872 97.9182 80.738 97.2707 80.9921 96.6233C81.1953 95.9261 81.6526 95.3783 82.3131 94.9301ZM83.1261 96.0257C82.7196 96.3245 82.4656 96.6731 82.3131 97.1213C82.1607 97.5695 82.2115 97.968 82.3639 98.4162C82.5164 98.8644 82.7196 99.3126 83.0753 99.7608C83.3801 100.209 83.7866 100.558 84.1931 100.807C84.5996 101.056 85.0061 101.205 85.4634 101.255C85.9207 101.305 86.3272 101.155 86.7336 100.807C87.1401 100.508 87.445 100.159 87.5466 99.711C87.6482 99.2628 87.6482 98.8644 87.4958 98.3664C87.3434 97.9182 87.1401 97.4699 86.7844 97.0217C86.4796 96.5735 86.0731 96.2249 85.6666 95.9759C85.2601 95.7269 84.8537 95.5775 84.3964 95.5775C83.9899 95.5775 83.5834 95.7269 83.1261 96.0257Z" fill="#F58A07"/>
<path d="M77.6886 103.745L75.6054 99.1634L77.1297 98.4661L80.6864 106.136L79.2129 106.783L78.654 105.538L78.5524 105.588C78.5524 106.086 78.4508 106.534 78.1459 106.932C77.8919 107.331 77.4346 107.679 76.8756 107.928C76.3167 108.177 75.8086 108.277 75.3005 108.227C74.7924 108.177 74.3351 107.978 73.9286 107.679C73.5222 107.381 73.1665 106.883 72.8616 106.235L70.626 101.355L72.1503 100.657L74.3351 105.339C74.5892 105.887 74.9449 106.285 75.4021 106.434C75.8594 106.634 76.3167 106.584 76.8248 106.385C77.1805 106.235 77.4346 106.036 77.6378 105.737C77.841 105.488 77.9427 105.14 77.9935 104.791C77.9935 104.542 77.8919 104.193 77.6886 103.745Z" fill="#F58A07"/>
</svg>
