<svg width="179" height="178" viewBox="0 0 179 178" fill="none" xmlns="http://www.w3.org/2000/svg">
<path d="M0 2.5C0 1.11929 1.11929 0 2.5 0H16V16H0V2.5Z" fill="#CF4D16"/>
<path d="M163 162H179V175.5C179 176.881 177.881 178 176.5 178H163V162Z" fill="#CF4D16"/>
<path d="M177.295 176.304L1.71869 1.70908C1.086 1.07993 1.53156 0 2.42381 0H81.8579C84.51 0 87.0536 1.05357 88.9289 2.92893L176.071 90.0711C177.946 91.9464 179 94.49 179 97.1421V175.595C179 176.485 177.926 176.932 177.295 176.304Z" fill="#F58A07"/>
<path d="M123.185 56.0616L118.025 66.1884L126.061 74.2251L114.836 72.4471L109.676 82.5739L107.898 71.3483L96.6723 69.5703L106.799 64.4104L105.021 53.1848L113.058 61.2215L123.185 56.0616Z" fill="white"/>
<path opacity="0.4" d="M89.4156 34.8053L86.2411 41.0354L91.1854 45.9797L84.2792 44.8859L81.1048 51.116L80.011 44.2098L73.1048 43.116L79.335 39.9416L78.2411 33.0354L83.1854 37.9797L89.4156 34.8053Z" fill="white"/>
<path opacity="0.4" d="M146.416 86.8053L143.241 93.0354L148.185 97.9797L141.279 96.8859L138.105 103.116L137.011 96.2098L130.105 95.116L136.335 91.9416L135.241 85.0354L140.185 89.9797L146.416 86.8053Z" fill="white"/>
</svg>
