<svg width="41" height="42" viewBox="0 0 41 42" fill="none" xmlns="http://www.w3.org/2000/svg">
<path fill-rule="evenodd" clip-rule="evenodd" d="M24.8856 1.78073C24.8856 0.797262 24.0946 0 23.1189 0C22.1432 0 21.3522 0.797262 21.3522 1.78073V2.6711H20.4688C19.4931 2.6711 18.7021 3.46836 18.7021 4.45183C18.7021 5.43531 19.4931 6.23257 20.4688 6.23257H21.3522V7.12293C21.3522 8.10641 22.1432 8.90367 23.1189 8.90367C24.0946 8.90367 24.8856 8.10641 24.8856 7.12293V6.23257H25.769C26.7447 6.23257 27.5357 5.43531 27.5357 4.45183C27.5357 3.46836 26.7447 2.6711 25.769 2.6711H24.8856V1.78073ZM21.7135 17.8073C20.3336 16.4165 18.0964 16.4165 16.7165 17.8073L13.036 21.517L1.03492 33.6133C-0.344973 35.0042 -0.344973 37.2592 1.03492 38.65L3.32364 40.9569C4.70353 42.3477 6.94078 42.3477 8.32067 40.9569L20.3218 28.8605L24.0022 25.1509C25.3821 23.76 25.3821 21.5051 24.0022 20.1142L21.7135 17.8073ZM19.0725 25.083L16.7838 22.7762L19.215 20.3257L21.5037 22.6325L19.0725 25.083ZM14.2853 25.2945L16.574 27.6014L5.82215 38.4385L3.53343 36.1317L14.2853 25.2945ZM32.8358 26.711C33.8116 26.711 34.6026 27.5083 34.6026 28.4917C35.5783 28.4917 36.3693 29.289 36.3693 30.2725C36.3693 31.2559 35.5783 32.0532 34.6026 32.0532C34.6026 33.0367 33.8116 33.8339 32.8358 33.8339C31.8601 33.8339 31.0691 33.0367 31.0691 32.0532C30.0934 32.0532 29.3024 31.2559 29.3024 30.2725C29.3024 29.289 30.0934 28.4917 31.0691 28.4917C31.0691 27.5083 31.8601 26.711 32.8358 26.711ZM36.2176 8.01317C35.5276 7.31775 34.409 7.31775 33.7191 8.01317C33.0291 8.70859 33.0291 9.83608 33.7191 10.5315L34.6023 11.4217L33.7191 12.312C33.0291 13.0074 33.0291 14.1349 33.7191 14.8303C34.409 15.5257 35.5276 15.5257 36.2176 14.8303L37.1008 13.9401L37.984 14.8303C38.674 15.5257 39.7926 15.5257 40.4825 14.8303C41.1725 14.1349 41.1725 13.0074 40.4825 12.312L39.5993 11.4217L40.4825 10.5315C41.1725 9.83608 41.1725 8.70859 40.4825 8.01317C39.7926 7.31775 38.674 7.31775 37.984 8.01317L37.1008 8.9034L36.2176 8.01317Z" fill="#F58A07"/>
</svg>
